<?xml version="1.0" encoding="UTF-8"?>
<!DOCTYPE svg PUBLIC "-//W3C//DTD SVG 1.1//EN" "http://www.w3.org/Graphics/SVG/1.1/DTD/svg11.dtd">
<svg xmlns="http://www.w3.org/2000/svg" xmlns:xlink="http://www.w3.org/1999/xlink" version="1.1" width="215px" height="173px" viewBox="-0.5 -0.5 215 173" style="background-color: rgb(255, 255, 255);"><defs/><g><path d="M 38.88 106.56 L 38.88 106.56 Q 65.13 106.56 65.13 158.12 Q 65.13 209.69 38.88 209.69 L 38.88 209.69 Z" fill="#136bc4" stroke="none" transform="rotate(-90,52.01,158.13)" pointer-events="all"/><path d="M 115 166.75 Q 165 166.8 165 117.45" fill="none" stroke="#000000" stroke-width="8" stroke-miterlimit="10" pointer-events="stroke"/><path d="M 165 106.95 L 172 120.95 L 165 117.45 L 158 120.95 Z" fill="#000000" stroke="#000000" stroke-width="8" stroke-miterlimit="10" pointer-events="all"/><path d="M 107 10 Q 57 10 57 57.43" fill="none" stroke="#000000" stroke-width="8" stroke-miterlimit="10" pointer-events="stroke"/><path d="M 57 67.93 L 50 53.93 L 57 57.43 L 64 53.93 Z" fill="#000000" stroke="#000000" stroke-width="8" stroke-miterlimit="10" pointer-events="all"/><ellipse cx="52" cy="115" rx="25" ry="25" fill="#136bc4" stroke="none" pointer-events="all"/><path d="M 148.88 16.56 L 148.88 16.56 Q 175.13 16.56 175.13 68.12 Q 175.13 119.69 148.88 119.69 L 148.88 119.69 Z" fill="#136bc4" stroke="none" transform="rotate(-90,162.01,68.13)" pointer-events="all"/><ellipse cx="162" cy="25" rx="25" ry="25" fill="#136bc4" stroke="none" pointer-events="all"/></g></svg>